<?xml version="1.0" encoding="utf-8"?>
<!-- Generator: Adobe Illustrator 16.0.0, SVG Export Plug-In . SVG Version: 6.00 Build 0)  -->
<!DOCTYPE svg PUBLIC "-//W3C//DTD SVG 1.1//EN" "http://www.w3.org/Graphics/SVG/1.1/DTD/svg11.dtd">
<svg version="1.1" id="Layer_1" xmlns="http://www.w3.org/2000/svg" xmlns:xlink="http://www.w3.org/1999/xlink" x="0px" y="0px"
	 width="190px" height="130.2px" viewBox="0 0 190 130.2" style="enable-background:new 0 0 190 130.2;" xml:space="preserve">
<style type="text/css">
<![CDATA[
	.st0{fill:#1a95c8;}
]]>
</style>
<g>
	<path class="st0" d="M46.5,46.2c-9.1,10.9,0.3,22.5,10.3,28.7c0.5,0.3,0.6-1.5,0.2-1.8c-9-5.6-18.7-15.2-10.3-26.2
		C46.8,46.7,46.7,46,46.5,46.2z"/>
	<path class="st0" d="M94.9,107.4c12.1,7.3,22.6-2.4,29.6-12.3c3.1-4.3,4.9-9.3,5.4-14.5c0.5-5.6-2.4-9.9-5.1-14.5
		c-0.5-0.8-0.7,0.8-0.5,1.2c0.9,1.8,0.8,1.7,1.9,3.4c3.1,5,3.4,10.8,1.4,16.3c-1.7,4.7-4.8,8.9-8.2,12.5c-3.6,3.9-7.7,7.4-12.8,9
		c-4.1,1.3-7.9-1.1-11.7-1.9C94.7,106.6,94.7,107.3,94.9,107.4z"/>
	<path class="st0" d="M124.2,65.3c3.1,0.7,5.3,2.9,8.4,3.7c2.7,0.6,6.3,0.8,8.9-0.4c4.1-1.9,8-5.4,9.6-9.7c0.2-0.4-0.2-2.2-0.5-1.3
		c-1.8,5.1-6.8,9.2-12,10.2c-5.6,1.1-9.2-2.7-14.3-3.4C124,64.3,123.9,65.2,124.2,65.3z"/>
	<path class="st0" d="M145.7,51.7c9.3,5.3,20.4,7.8,29.1-0.4c4.6-4.4,4.5-11.9,0.4-16.5c-0.4-0.4-0.4,1-0.2,1.3
		c7,10.5-2.6,17.3-11.5,19.1c-6.1,1.2-12.2-1.7-17.6-4.2C145.6,50.9,145.5,51.6,145.7,51.7z"/>
	<path class="st0" d="M21,25.1c-5.9,5.6-6.4,15.5-2.9,22.5c4.8,9.5,20,10.3,26.1,1.9c0.2-0.2,0.1-1.5-0.3-1.2
		c-6.5,5.5-13.6,6.8-21.2,2.5C13.4,45.4,16.2,32.5,21,25.1L21,25.1z"/>
	<path class="st0" d="M99.4,50.4c5.3,8.3,23.8,8.6,29.6,0.8c6.4-8.4-0.2-20.1-8.7-24.2c-0.4-0.2-0.5,1.3-0.1,1.5
		c3.9,2.5,7,5.6,9.2,9.7c4.4,8.2-1.9,14.3-9,16.3c-6.4,1.8-16.8,0.8-21-4.8C99.4,49.5,99.4,50.2,99.4,50.4z"/>
	<path class="st0" d="M125.5,56.8c3.7,1.4,8.7,0,12.3-1c2.5-0.7,6.7-1.9,6.4-5.2c0-0.3-0.3-0.8-0.5-0.3c-1.4,3.1-6.1,4-9,4.7
		c-2.7,0.7-6.4,1.6-9.2,0.8C125.3,55.8,125.2,56.7,125.5,56.8z"/>
	<path class="st0" d="M10.6,42.5c-1.5,3-3.3,6-4.7,9.1c-0.7,1.5-2,3.8-1.5,5.5c0,0.1,0.2,0.5,0.3,0.2c0.1-0.1,0.1-0.3,0.2-0.4
		C5,56.8,5,56,4.8,56.1c-0.1,0-0.2,0.1-0.3,0.1c0.1,0.2,0.2,0.4,0.3,0.6c-0.1-1.9,1.8-5.1,2.6-6.7c1.1-2.3,2.3-4.6,3.4-6.9
		C10.8,43,10.7,42.3,10.6,42.5z"/>
	<path class="st0" d="M15.2,37.6c-3.1,7-6.7,13.8-8.7,21.3c-0.1,0.2,0.1,1.5,0.4,0.9c0.1-0.3,0.3-0.7,0.4-1c0.1-0.2-0.1-1.1-0.2-0.8
		c0.9-1.4,2.3-5.7,3.4-8.3c1.6-3.8,3.4-7.6,5-11.5C15.4,38.1,15.3,37.4,15.2,37.6z"/>
	<path class="st0" d="M16.1,40c-2.8,6-5.9,11.8-7.8,18.1c-0.1,0.3,0.1,1.6,0.4,0.9c0.1-0.3,0.3-0.7,0.4-1c0.1-0.2,0-1.1-0.2-0.8
		c-0.2,0.3-0.3,0.5-0.5,0.8c0.1,0.3,0.2,0.7,0.3,1c2-6.3,4.9-12.2,7.6-18.3C16.4,40.6,16.2,39.8,16.1,40z"/>
	<path class="st0" d="M17.7,42.6c-2.3,5.2-8.1,11-7.5,17c0.1,0.5,0.3,0.4,0.4,0c0.6-6,5.1-10.9,7.3-16.3
		C17.9,43.1,17.8,42.4,17.7,42.6z"/>
	<path class="st0" d="M17.6,46.5c-2.4,4.8-5.5,9.6-6.6,14.9c0,0.1,0.1,0.8,0.2,0.4c1.9-5.1,4.2-9.9,6.5-14.8
		C17.8,46.9,17.7,46.4,17.6,46.5z"/>
	<path class="st0" d="M18.2,50.1c-1.9,3.5-4.3,7-5,11c0,0.2,0.1,1,0.3,0.5c1.4-3.7,3-7.2,4.9-10.7C18.5,50.8,18.3,49.8,18.2,50.1z"
		/>
	<path class="st0" d="M20.3,50.2c-2.1,4.1-4.8,8-5.8,12.6c0,0.1,0.1,1.2,0.3,0.8c0.1-0.2,0.2-0.4,0.4-0.5c0.1-0.1,0.1-0.9-0.1-0.8
		c-0.1,0.1-0.3,0.1-0.4,0.2c0.1,0.3,0.2,0.7,0.2,1c1.2-4.5,3.6-8.4,5.6-12.6C20.6,50.7,20.4,49.9,20.3,50.2z"/>
	<path class="st0" d="M22.1,52.8c-2.2,3.6-4.8,7.3-5.6,11.5c0,0.2,0.2,1.2,0.3,0.7c1.4-4,3.3-7.6,5.4-11.2
		C22.5,53.5,22.3,52.5,22.1,52.8z"/>
	<path class="st0" d="M23.9,53c-2.2,3.9-4.7,7.8-5.8,12.2c0,0.2,0.1,1.2,0.3,0.7c1.6-4.2,3.5-8.1,5.6-12
		C24.3,53.6,24.1,52.7,23.9,53z"/>
	<path class="st0" d="M26.3,53.1c-1.4,2.5-2.8,4.9-4.1,7.5c-0.7,1.3-2.3,4.1-1.4,5.6l0.2,0.1c0.3-0.2,0.2-0.6,0.1-1
		c-0.2-1,1.2-3.1,1.6-4c1.2-2.5,2.5-4.9,3.8-7.3C26.7,53.8,26.5,52.8,26.3,53.1z"/>
	<path class="st0" d="M28.1,54.7c-1.5,2.6-2.7,5.4-3.9,8.1c-0.6,1.2-2.7,4.3-2,5.8c0.2,0.4,0.4,0,0.4-0.3c0,0.8,0.5-1,0.7-1.3
		c0.6-1.3,1.1-2.7,1.7-4c1.1-2.5,2.1-5,3.4-7.4C28.4,55.4,28.3,54.4,28.1,54.7z"/>
	<path class="st0" d="M30.7,54.9c-2.3,4.5-5.3,8.8-6.5,13.8c0,0.2,0.1,1.4,0.4,0.9c0.2-0.3,0.2-0.3,0.3-0.7c0.1-0.2-0.1-1.3-0.3-0.9
		l-0.2,0.3c0.1,0.4,0.2,0.8,0.3,1.1c1.4-4.9,4.1-9.1,6.3-13.7C31,55.6,30.8,54.6,30.7,54.9z"/>
	<path class="st0" d="M32.5,55.2c-2.5,4.6-5.3,9-6.9,14c-0.1,0.2,0.1,1.7,0.4,1.2c0.2-0.3,0.4-0.7,0.6-1.1c0.1-0.2,0-1.5-0.3-1.1
		c-0.2,0.3-0.4,0.6-0.6,0.9c0.1,0.4,0.3,0.8,0.4,1.2c1.5-5,4.2-9.6,6.6-14.2C32.8,55.9,32.7,54.9,32.5,55.2z"/>
	<path class="st0" d="M35,54c-2.7,4.7-5.7,9.3-7,14.6c0,0.2,0.2,1.4,0.4,1c0.1-0.2,0.2-0.5,0.3-0.7c0.1-0.1,0.1-1.2-0.2-1
		c-0.1,0.1-0.3,0.3-0.4,0.4c0.1,0.4,0.2,0.8,0.3,1.2c1.5-5.3,4.2-9.9,6.7-14.7C35.3,54.6,35.2,53.8,35,54z"/>
	<path class="st0" d="M37.5,53.3c-2.4,4-5.1,7.9-6.3,12.4c0,0.2,0.1,1.1,0.3,0.7C33.4,62,35.5,57.7,37.5,53.3L37.5,53.3z"/>
	<path class="st0" d="M38.2,56.9c-2,4.6-4.4,9.2-5.8,14c0,0.1,0.1,1,0.2,0.7c2.1-4.6,3.9-9.3,5.8-14C38.5,57.4,38.3,56.6,38.2,56.9z
		"/>
	<path class="st0" d="M42.1,53.6c-1.9,5.3-5,10.1-6.6,15.4c-0.1,0.3,0.2,1.5,0.4,0.9c0.1-0.3,0.1-0.6,0.2-0.8c0-0.1,0-0.9-0.2-0.6
		c-0.1,0.2-0.2,0.3-0.3,0.5c0.1,0.3,0.2,0.7,0.3,1c1.8-5.4,4.6-10.5,6.3-16C42.3,53.8,42.2,53.3,42.1,53.6z"/>
	<path class="st0" d="M42.7,55.6c-1.7,4.8-3.9,9.3-5.6,14.1c-0.1,0.3,0.1,1.6,0.4,1.1c0.1-0.3,0.3-0.6,0.4-0.9c0.1-0.2,0-1.2-0.2-1
		c-0.2,0.2-0.3,0.4-0.5,0.6c0.1,0.4,0.2,0.8,0.3,1.2c1.6-4.9,3.8-9.6,5.4-14.4C43,56.1,42.9,55.1,42.7,55.6z"/>
	<path class="st0" d="M44.4,58.8c-1.9,4.7-4.8,9-5.8,14c0,0.2,0.1,1.5,0.4,1c0.1-0.3,0.3-0.5,0.4-0.8c0.1-0.2,0-1.3-0.2-1
		c-0.2,0.2-0.3,0.3-0.5,0.5c0.1,0.4,0.2,0.7,0.3,1.1c1-5,3.8-9.4,5.5-14.2C44.6,59.2,44.5,58.5,44.4,58.8z"/>
	<path class="st0" d="M44.7,63c-1.7,3.6-4.1,7.2-4.3,11.3c0,0.1,0.1,1.2,0.4,0.8c0.1-0.2,0.2-0.3,0.3-0.5c0.1-0.2,0-1.3-0.2-1.1
		l-0.3,0.3c0.1,0.3,0.2,0.6,0.3,0.9c0.5-3.9,2.5-7.4,4-10.9C45,63.5,44.8,62.7,44.7,63z"/>
	<path class="st0" d="M46.5,65.2c-0.7,1.5-7,11.3-4.5,12.6c0.4,0.2,0.3-0.9,0.2-1.1c-0.5-1.5,1.6-4.7,2.1-6c0.7-1.6,1.6-3.1,2.3-4.7
		C46.8,65.8,46.6,64.9,46.5,65.2z"/>
	<path class="st0" d="M47.5,67.1c-0.6,1.2-6.1,10.2-4,11.1c0.4,0.2,0.3-1,0.2-1.2c0.2,0.3,0.1,0,0.2-0.4c0.1-0.4,0.3-0.9,0.5-1.3
		c0.4-1,0.9-2,1.3-3c0.7-1.4,1.4-2.8,2-4.2C47.8,67.8,47.6,66.8,47.5,67.1z"/>
	<path class="st0" d="M49.1,68.4c-1.5,3.2-3.7,6.2-4,9.8c0,0.1,0.1,1.3,0.4,1c0.2-0.2,0.3-0.3,0.4-0.5c0.1-0.2,0.2-1.1-0.1-1.1
		c-0.1,0-0.3,0-0.4,0.1c0.1,0.4,0.2,0.8,0.3,1.2c0.5-3.4,2.4-6.2,3.7-9.3C49.4,69.2,49.2,68.1,49.1,68.4z"/>
	<path class="st0" d="M50.6,69.9c-0.7,1.5-1.7,2.9-2.4,4.5c-0.4,0.9-1,2.6-0.3,3.5c0.2,0.3,0.3-0.4,0.3-0.5
		c-0.1-2.3,1.7-4.5,2.6-6.6C51,70.6,50.8,69.6,50.6,69.9z"/>
	<path class="st0" d="M52.5,70.8c-1,2.1-2.2,4.2-2.7,6.5c0,0.1-0.1,1.3,0.3,1.2c0.2-0.1,0.3-0.1,0.4-0.3c0.2-0.2,0.3-1.1-0.1-1.2
		l-0.3-0.1c0.1,0.5,0.1,0.9,0.2,1.4c0.6-2.3,1.6-4.3,2.6-6.5C53,71.6,52.7,70.4,52.5,70.8z"/>
	<path class="st0" d="M55.1,72.7c-0.6,1.4-1.7,2.9-1.6,4.5c0,0.1,0.1,0.7,0.3,0.4c0.3-0.5,0.4-1.3,0.6-1.8c0.3-0.8,0.7-1.6,0.9-2.4
		C55.4,73.1,55.2,72.2,55.1,72.7z"/>
	<path class="st0" d="M95.9,106.6c-1.7,4.6-4,9.3-4.9,14.2c0,0.2,0.1,1,0.3,0.6c1.8-4.6,3.4-9.4,4.8-14.1
		C96.1,107.1,96,106.2,95.9,106.6z"/>
	<path class="st0" d="M97.7,108.4c-1.8,4.6-4.3,9.1-5.3,13.9c0,0.2,0.2,1.3,0.4,0.7c1.5-4.8,3.4-9.4,5.1-14.1
		C98,108.8,97.8,108.1,97.7,108.4z"/>
	<path class="st0" d="M99.3,109.8c-1.1,2.5-2.3,5.1-3.4,7.6c-0.8,1.8-1.8,3.7-1.6,5.8c0,0.3,0.3,0.8,0.4,0.3
		c0.6-4.3,3.1-8.7,4.8-12.7C99.7,110.6,99.5,109.5,99.3,109.8z"/>
	<path class="st0" d="M101.3,110.4c-1.3,2.8-2.8,5.5-4,8.3c-0.4,0.9-1.9,4.2-0.6,5c0.3,0.2,0.2-0.7,0.2-0.8
		c-0.6-1.6,1.7-5.5,2.3-6.8c0.8-1.7,1.6-3.3,2.3-4.9C101.6,110.9,101.4,110.1,101.3,110.4z"/>
	<path class="st0" d="M104,109.2c-2.2,4.6-5.7,9.9-6.2,15.2c0,0.2,0.2,1.3,0.5,0.7c0.1-0.3,0.2-0.6,0.3-0.9c0.1-0.2,0-1.1-0.3-0.8
		c-0.1,0.2-0.3,0.4-0.4,0.6c0.1,0.3,0.3,0.5,0.4,0.8c0.4-5,3.7-10.2,5.8-14.7C104.2,109.7,104.1,108.9,104,109.2z"/>
	<path class="st0" d="M106.2,109.2c-2.4,4.8-5.8,10.2-6.6,15.6c0,0.1,0.1,1.4,0.4,0.9c0.2-0.5,0.3-0.7,0.5-1.1
		c0.1-0.2-0.1-1.3-0.3-0.9c-0.1,0.3-0.3,0.6-0.5,0.9c0.1,0.3,0.3,0.6,0.4,0.9c0.9-5.3,4.1-10.6,6.3-15.5
		C106.5,109.7,106.3,108.9,106.2,109.2z"/>
	<path class="st0" d="M107.7,110.6c-2.4,5-5.1,9.9-6.4,15.3c0,0.2,0.1,1.6,0.4,1c0.2-0.3,0.4-0.6,0.5-1c0.1-0.2,0.1-1.2-0.2-1
		c-0.2,0.2-0.4,0.4-0.6,0.6c0.1,0.4,0.2,0.7,0.4,1.1c1.3-5.6,4-10.6,5.9-15.9L107.7,110.6z"/>
	<path class="st0" d="M107.7,116.2c-1.5,3.1-4,6.2-3.8,9.8c0,0.1,0.2,1.1,0.4,0.6c0.2-0.2,0.3-0.5,0.4-0.7c0.1-0.2,0.1-1.3-0.2-1
		c-0.2,0.1-0.3,0.3-0.5,0.4c0.1,0.2,0.2,0.5,0.4,0.7c0-3.4,2.3-6.4,3.3-9.5L107.7,116.2z"/>
	<path class="st0" d="M109.4,117.7c-1.3,2.7-3,5.1-3.5,8.1c0,0.2,0.1,1.6,0.4,1.1c0.3-0.3,0.5-0.7,0.7-1.1c0.1-0.2,0.1-1.2-0.2-1
		c-0.3,0.2-0.5,0.4-0.8,0.6c0.1,0.3,0.3,0.7,0.4,1C106.7,123.4,108.4,120.6,109.4,117.7L109.4,117.7z"/>
	<path class="st0" d="M110.2,119.4c-1,2-2.1,3.9-2.5,6.1c0,0.2,0.2,1.6,0.4,1c0.1-0.2,0.2-0.3,0.2-0.5c0.1-0.1,0.2-1.1-0.1-1
		l-0.3,0.1c0.1,0.4,0.2,0.8,0.3,1.2c0.4-2.3,1.4-4.4,2.1-6.6L110.2,119.4z"/>
	<path class="st0" d="M111.4,122.9c-0.7,0.7-1.4,1.6-1.7,2.5c0,0.1,0,0.9,0.2,0.7c0.4-0.4,0.6-1,0.8-1.5c0.3-0.5,0.5-1.1,0.7-1.6
		L111.4,122.9z"/>
	<path class="st0" d="M110.2,108.7c-1.2,2.4-2.7,4.8-3.4,7.5c-0.1,0.2,0.1,1.2,0.3,0.7c1-2.5,2.2-4.9,3.3-7.4
		C110.5,109.4,110.4,108.5,110.2,108.7z"/>
	<path class="st0" d="M114.4,104.6c-1.8,4.4-4.3,8.6-5.2,13.3c0,0.2,0.2,1.2,0.3,0.6c1.2-4.6,3.4-8.9,5.1-13.3
		C114.6,105.1,114.5,104.4,114.4,104.6z"/>
	<path class="st0" d="M117.6,101.7c-2.4,5.6-5.4,11.2-6.5,17.2c0,0.2,0.2,1.1,0.3,0.6c1.8-5.8,4.1-11.4,6.4-17
		C117.8,102.3,117.7,101.5,117.6,101.7z"/>
	<path class="st0" d="M120.1,101.2c-2.6,6.1-6,11.9-7.5,18.4c0,0.1,0.1,1.3,0.4,0.9l0.2-0.3c0.1-0.1,0.1-1.2-0.2-1l-0.2,0.1
		c0.1,0.4,0.1,0.8,0.2,1.2c1.2-2.3,1.7-5.2,2.6-7.7c1.5-3.8,3.2-7.5,4.6-11.5L120.1,101.2z"/>
	<path class="st0" d="M121.2,103.6c-2.2,5.8-5.7,11-7,17.2c-0.1,0.2,0.1,1.4,0.4,0.8c0.1-0.3,0.3-0.6,0.4-1c0.1-0.2,0-1.1-0.3-0.8
		c-0.2,0.2-0.3,0.5-0.5,0.7c0.1,0.3,0.2,0.6,0.4,0.9c1.2-6.3,4.7-11.7,6.6-17.7L121.2,103.6z"/>
	<path class="st0" d="M122,108.5c-2,3.6-4.5,7.2-4.9,11.4c0,0.1,0,1,0.3,0.8c0.1-0.1,0.2-0.2,0.4-0.3c0.2-0.1,0.2-1.2-0.1-1.1
		c-0.1,0-0.3,0.1-0.4,0.1c0.1,0.3,0.2,0.6,0.3,0.8c0.5-4.1,2.8-7.8,4.5-11.5L122,108.5z"/>
	<path class="st0" d="M123.8,109.9c-1.7,3.2-4,6.1-4.6,9.8c0,0.1,0.1,1.5,0.4,1.2c0.5-0.5,0.8-1.1,1.2-1.7c0.1-0.1,0-1.1-0.2-0.9
		c-0.4,0.4-0.7,0.7-1.2,1c0.1,0.3,0.3,0.6,0.4,1c0.3-3.7,2.6-7,4.1-10.3L123.8,109.9z"/>
	<path class="st0" d="M125.4,110.2c-1.3,2.9-2.8,5.9-3.6,9c-0.1,0.4,0.2,1.8,0.4,0.9c0-0.1,0.1-0.3,0.1-0.4c0-0.1,0-1.1-0.2-0.9
		l-0.2,0.2c0.1,0.4,0.2,0.8,0.3,1.2c1-3.3,2.4-6.4,3.3-9.8L125.4,110.2z"/>
	<path class="st0" d="M123.8,95.7c-1.4,3.3-3,6.6-3.7,10.1c0,0.2,0.2,1,0.3,0.6c1-3.4,2.3-6.7,3.6-10.1
		C124.1,96.2,124,95.3,123.8,95.7z"/>
	<path class="st0" d="M128.4,69.6c-0.4,0.8-0.7,1.6-0.9,2.4c0,0.1,0.1,0.9,0.2,0.5c0.3-0.7,0.5-1.4,0.9-2.1
		C128.7,70.2,128.5,69.3,128.4,69.6z"/>
	<path class="st0" d="M130.2,70.2c-0.8,1.7-1.9,3.2-2.1,5.1c0,0.1,0.1,0.8,0.2,0.4c0.5-1.6,1.3-3.1,2-4.7
		C130.5,70.8,130.3,69.9,130.2,70.2z"/>
	<path class="st0" d="M131.5,71.1c-1.7,1.6-3.2,4.5-3.1,6.9c0,0.1,0.2,0.7,0.2,0.3c0.3-1.2,0.5-2.3,1-3.5
		C130.2,73.6,131,72.4,131.5,71.1L131.5,71.1z"/>
	<path class="st0" d="M132.4,72.4c-1.1,2.9-2.5,5.8-3.1,8.9c0,0.1,0.1,0.8,0.2,0.5c1.1-2.9,2.1-5.8,3.1-8.7
		C132.7,72.8,132.6,72,132.4,72.4z"/>
	<path class="st0" d="M134.3,72.6c-2.2,5.7-5.4,11-7.3,16.7c0,0.1,0.1,0.9,0.2,0.7C129.8,84.3,132.5,78.6,134.3,72.6L134.3,72.6z"/>
	<path class="st0" d="M135.6,73.4c-2.4,6-5.7,11.5-8.1,17.5c-2,4.8-4.8,9.8-5.5,15c-0.1,0.6,0.5,1.4,0.6,0.4
		c0.6-5.6,4-11.4,6.1-16.6c2.2-5.3,5.3-10.3,7-15.8C135.8,73.8,135.7,73.2,135.6,73.4z"/>
	<path class="st0" d="M137.1,74.7c-1.9,5.4-4.2,10.6-6.5,15.8c-2.2,4.8-6.2,10.8-6.5,16.2c0-0.2-0.2-1-0.4-0.5
		c-0.1,0.2-0.1,0.3-0.2,0.5c-0.1,0.3,0.2,1.7,0.4,1C128.1,96.5,133.9,86.2,137.1,74.7L137.1,74.7z"/>
	<path class="st0" d="M139.3,74.9C137,86.6,128.4,96.6,125,108c-0.1,0.4,0.2,1.8,0.5,0.9C128.7,97.3,137.9,86.9,139.3,74.9
		L139.3,74.9z"/>
	<path class="st0" d="M141,77.2c0.3-0.2-1.8,5.6-1.5,4.9c-0.7,1.8-1.5,3.5-2.3,5.3c-1.4,3.2-2.9,6.3-3.8,9.7c0,0.2,0.1,1.1,0.3,0.7
		c2.5-6.9,6.2-13.6,7.8-20.8l0-0.1C141.3,76.9,141.1,77,141,77.2L141,77.2z"/>
	<path class="st0" d="M144.3,76.8c-1,0.8-2.8,6.5-3.7,8.5c-1.6,3.5-3.1,7-4.2,10.7c-0.1,0.2,0.1,1.2,0.3,0.7
		c0.3-0.6,0.5-1.1,0.7-1.7c0-0.1,0-0.5-0.1-0.4c-1.1,2.3,0.7-1.4,0.8-1.9c0.6-1.8,1.4-3.5,2.1-5.2c1.5-3.6,3-7.2,4.4-10.9l0-0.2
		C144.5,76.5,144.4,76.6,144.3,76.8L144.3,76.8z"/>
	<path class="st0" d="M145.9,78.2c-1.2,6.5-6.2,11.9-7.5,18.5c0,0.1,0.1,1.1,0.3,0.7c0.5-0.8,0.4-0.6,0.7-1.5c0-0.1,0-0.6-0.1-0.4
		c-0.3,0.3-0.5,0.7-0.8,1c0.1,0.3,0.1,0.6,0.2,0.9C140.7,90.9,145.1,84.9,145.9,78.2L145.9,78.2z"/>
	<path class="st0" d="M147.7,80.6c-1.5,2.9-2.7,6-4.3,8.8c-1.1,2.1-2.2,4.1-2.4,6.5c0,0.1,0.1,1.1,0.3,0.7c0.5-0.9,0.5-0.9,0.9-1.8
		c0.1-0.1-0.1-0.9-0.2-0.7c-0.2,0.5-0.5,1-0.9,1.4c0.1,0.2,0.2,0.5,0.3,0.7c0.3-2.7,1.8-5.1,3-7.5c1.2-2.6,2.2-5.3,3.3-8L147.7,80.6
		z"/>
	<path class="st0" d="M149.3,82.4c-1.7,4-4.1,7.8-5.2,12c0,0.2,0.1,1.5,0.3,1c0.2-0.3,0.2-0.5,0.3-0.8c0-0.1,0-0.8-0.2-0.6
		c-0.1,0.1-0.2,0.2-0.3,0.2c0.1,0.4,0.2,0.7,0.3,1.1c1.4-4.2,3.5-8.2,5-12.3C149.5,82.9,149.4,82.2,149.3,82.4z"/>
	<path class="st0" d="M134.7,93c-1.5,2.7-3,5.5-4.5,8.2c-1.2,2.3-3.3,5.1-3.7,7.7c0,0.1,0,1.3,0.4,0.9c1.6-2.1,2.5-5.2,3.6-7.5
		c1.5-3,3-6,4.3-9.1L134.7,93z"/>
	<path class="st0" d="M136,96.1c-2,4.5-4.8,8.7-5.6,13.7c0,0.2,0.2,1.1,0.3,0.5c1.1-5,3.4-9.4,5.4-14.1L136,96.1z"/>
	<path class="st0" d="M138.2,97c-1.3,2.5-2.5,5-3.7,7.5c-0.7,1.5-1.4,2.9-1.4,4.6c0,0.1,0.2,1,0.4,0.6c0.1-0.2,0.3-0.5,0.4-0.7
		c0.1-0.1,0.1-0.9-0.1-0.8c-0.2,0.1-0.3,0.2-0.5,0.2c0.1,0.3,0.2,0.6,0.3,0.8c0.1-1.9,1.1-3.6,1.8-5.4c0.9-2.3,1.9-4.5,2.9-6.8
		L138.2,97z"/>
	<path class="st0" d="M140.3,97.4c-1.8,3.4-4.2,6.5-5.1,10.2c0,0.2,0.1,1.2,0.3,0.7c1.4-3.7,3.3-7.2,4.9-10.8L140.3,97.4z"/>
	<path class="st0" d="M137.3,70.1c-0.4,1-0.9,1.9-1.3,2.9c-0.1,0.2,0.1,1.1,0.3,0.7c0.4-0.9,0.8-1.8,1.2-2.7c0.1-0.2,0.1-0.5,0-0.7
		C137.6,70.2,137.4,69.9,137.3,70.1z"/>
	<path class="st0" d="M140.7,68c-1,1.7-2.1,3.5-2.6,5.5c0,0.2,0.1,1.2,0.3,0.8c0.9-1.8,1.6-3.6,2.6-5.4
		C141,68.7,140.9,67.7,140.7,68z"/>
	<path class="st0" d="M142.9,67.4c-1.1,2.2-2.7,4.6-2.8,7.1c0,0.2,0.2,0.8,0.3,0.3c0.3-1,0.6-2,0.9-2.9c0.5-1.2,1.2-2.4,1.7-3.6
		C143.2,68.1,143.1,67.1,142.9,67.4z"/>
	<path class="st0" d="M147,63.5c-1.1,2.4-2.2,4.7-3.4,7c-0.7,1.4-1.5,2.9-1.2,4.5c0.1,0.5,0.4,0.5,0.4,0c0.2-2,1.3-3.8,2.1-5.7
		c0.8-1.8,1.6-3.5,2.3-5.3C147.2,64,147.1,63.3,147,63.5z"/>
	<path class="st0" d="M150.9,60.3c-1.4,5.3-5,9.7-6.1,15.1c0,0.1,0.2,1.3,0.3,0.9c0.1-0.2,0.2-0.4,0.3-0.7c0.1-0.2,0-1.1-0.3-0.8
		c-0.1,0.1-0.2,0.3-0.3,0.4c0.1,0.3,0.2,0.6,0.3,0.9C146.5,70.6,149.9,65.9,150.9,60.3L150.9,60.3z"/>
	<path class="st0" d="M153,60.6c-2.1,5-5,9.7-6.3,15c0,0.2,0.1,1.5,0.4,1c0.4-0.6,0.4-0.7,0.7-1.3c0.1-0.2,0-1.2-0.3-0.8
		c-0.2,0.3-0.4,0.5-0.7,0.8c0.1,0.4,0.2,0.7,0.3,1.1c1.2-5.5,4.1-10.4,5.9-15.6L153,60.6z"/>
	<path class="st0" d="M154.2,63.5c-2.3,3.3-4.2,6.9-5,10.8c0,0.2,0.1,1.5,0.4,1c0.1-0.3,0.3-0.5,0.4-0.8c0.1-0.1,0.1-1.2-0.2-1
		c-0.2,0.1-0.3,0.2-0.5,0.4c0.1,0.4,0.2,0.7,0.3,1.1C150.4,71,152.1,67.2,154.2,63.5L154.2,63.5z"/>
	<path class="st0" d="M155,64.9c-1.3,2.6-2.7,5.3-3.2,8.2c0,0.1,0.1,0.9,0.2,0.5c0.9-2.9,1.8-5.7,3-8.5L155,64.9z"/>
	<path class="st0" d="M127,27c-0.5,1-1.2,1.9-1.6,2.9c-0.1,0.3-0.6,2.2,0.1,2.1c0.2,0,0.1-0.7,0.1-0.8c0.1,0.2-0.1,0.4,0,0.1
		c0-0.1,0.1-0.3,0.1-0.4c0.2-0.4,0.4-0.8,0.6-1.2c0.3-0.6,0.7-1.2,0.9-1.8C127.3,27.7,127.1,26.7,127,27z"/>
	<path class="st0" d="M129,27c-0.9,2-3,4.6-2.3,7c0.1,0.3,0.3,0.1,0.3-0.1c0.3-2.2,1.4-4,2.2-6.1C129.2,27.6,129.1,26.7,129,27z"/>
	<path class="st0" d="M130.5,28.9c-0.9,1.9-2.6,4.1-2.2,6.3c0.1,0.3,0.2,0.3,0.3,0c0.4-2,1.3-3.6,2.1-5.4
		C130.8,29.6,130.6,28.6,130.5,28.9z"/>
	<path class="st0" d="M131.5,30.2c-0.8,1.8-2.3,3.6-2.3,5.7c0,0.6,0.4,1,0.5,0.2c0.2-1.8,1.4-3.4,2-5
		C131.8,30.8,131.7,29.9,131.5,30.2z"/>
	<path class="st0" d="M132.5,32.4c-0.9,1.7-1.9,3.2-2,5.2c0,0.5,0.4,0.9,0.4,0.2c0.1-1.7,1-3.1,1.7-4.6
		C132.8,33,132.6,32.2,132.5,32.4z"/>
	<path class="st0" d="M133.7,34.6c-0.9,1.8-2.2,3.6-2.3,5.7c0,0.3,0.3,1.3,0.4,0.5c0.3-2,1.3-3.7,2-5.5
		C133.9,35.2,133.8,34.4,133.7,34.6z"/>
	<path class="st0" d="M134.9,35.6c-1.1,4-4.4,7.9-4.1,12.2c0,0.3,0.3,1,0.4,0.3c0.8-4.2,3.1-7.9,3.8-12.1
		C135.1,35.8,135,35.2,134.9,35.6z"/>
	<path class="st0" d="M135.8,40.1c-2.1,4.7-4.2,9.4-6.1,14.1c0.1,0.4,0.3,0.7,0.4,1.1l0.1-0.3c0.1-0.1,0.1-1.1-0.2-1.1l-0.2,0
		c-0.4,0-0.4,1.4,0,1.5l0,0c0.2,0.1,0.2-0.1,0.3-0.2c1.5-4.9,3.9-9.5,5.9-14.2C136.1,40.9,135.9,39.8,135.8,40.1z"/>
	<path class="st0" d="M137.5,41.5c-1.8,4-3.9,7.8-5,12.1c-0.1,0.2,0.1,1.8,0.4,1.3c0.2-0.4,0.4-0.7,0.5-1.1c0.1-0.2,0-1.3-0.2-1.1
		c-0.2,0.2-0.4,0.4-0.6,0.6c0.1,0.4,0.2,0.8,0.4,1.2c1-4.2,3.1-8.1,4.8-12C137.8,42.3,137.6,41.2,137.5,41.5z"/>
	<path class="st0" d="M138.7,44.9c-1.4,2.9-2.9,5.7-3.5,8.8c0,0.1,0,1.6,0.4,1.2c0.2-0.2,0.3-0.3,0.4-0.6c0.1-0.2,0-1.5-0.3-1.2
		l-0.2,0.1c0.1,0.4,0.2,0.9,0.3,1.3c0.6-3.1,2-5.9,3.2-8.7C139,45.6,138.8,44.6,138.7,44.9z"/>
	<path class="st0" d="M140.1,47.5c-0.9,2.1-2,4.1-2.6,6.3c0,0.2,0,1.5,0.4,1.3c0.4-0.2,0.4-0.6,0.5-1c0-0.2-0.1-1.4-0.4-0.9
		l-0.3,0.2c0.1,0.4,0.2,0.9,0.3,1.3c0.4-2.1,1.4-4,2.3-6C140.5,48.4,140.3,47.2,140.1,47.5z"/>
	<path class="st0" d="M142.2,47.2c-1.1,2-2.4,3.9-2.9,6.2c0,0.2,0,1.5,0.4,1.3c0.3-0.2,0.4-0.4,0.6-0.7c0.1-0.2,0.1-1.4-0.2-1.2
		c-0.2,0.1-0.3,0.2-0.5,0.3c0.1,0.4,0.2,0.9,0.3,1.3c0.4-2.3,1.6-4.3,2.5-6.3C142.4,47.8,142.3,46.9,142.2,47.2z"/>
	<path class="st0" d="M143.3,49.4c-0.6,0.9-1.3,1.8-1.4,2.9c0,0.1,0.1,0.8,0.2,0.6c0.3-0.3,0.3-0.7,0.5-1.1c0.2-0.6,0.5-1.2,0.8-1.8
		C143.5,49.8,143.5,49.2,143.3,49.4z"/>
	<path class="st0" d="M128.9,49.8c-0.9,1.6-2,3.5-2.4,5.3c0,0.1,0,1,0.2,0.8c0.5-0.4,0.7-1.3,0.9-1.9c0.4-1,0.9-2.1,1.4-3.1
		C129.3,50.6,129.1,49.5,128.9,49.8z"/>
	<path class="st0" d="M152,53.5c-0.5,1.6-1.3,2.9-1.8,4.5c-0.1,0.2,0.1,1.5,0.3,0.9c0.6-1.6,1.3-3.2,1.7-4.8
		C152.4,53.9,152.2,53,152,53.5z"/>
	<path class="st0" d="M153.5,55.9c-0.7,1.5-1.6,3-1.8,4.7c0,0.2,0.2,1.3,0.3,0.7c0.4-1.5,1-3,1.7-4.5
		C153.8,56.7,153.7,55.6,153.5,55.9z"/>
	<path class="st0" d="M155.8,56c-1.1,2.1-2.6,4.3-2.9,6.7c0,0.1,0.1,1,0.3,0.6c0.6-1,0.8-2.2,1.2-3.2c0.5-1.1,1-2.1,1.6-3.2
		C156.2,56.8,156,55.7,155.8,56z"/>
	<path class="st0" d="M157.7,57.2c-1.2,2.5-3.2,4.8-3.2,7.7c0,0.4,0.3,1,0.5,0.3c0.4-2.6,1.9-4.7,3-7.1
		C158,57.9,157.8,57,157.7,57.2z"/>
	<path class="st0" d="M161.4,55.6c-1.4,2.5-2.6,5-3.9,7.5c-0.5,1-1.4,2.6-0.6,3.7c0.2,0.3,0.3-0.4,0.3-0.5c0-1.5,1.2-3.3,1.8-4.7
		c0.8-1.8,1.7-3.6,2.6-5.4C161.6,56.1,161.5,55.4,161.4,55.6z"/>
	<path class="st0" d="M163.6,56.1c-2,3.6-4.3,7.3-5.2,11.4c0,0.2,0.2,1.6,0.4,1.1c0.1-0.2,0.2-0.5,0.4-0.7c0.1-0.2,0-1.4-0.2-1.2
		c-0.1,0.1-0.3,0.3-0.4,0.4c0.1,0.4,0.2,0.8,0.4,1.2c1-4.1,3.1-7.8,4.8-11.6C163.8,56.6,163.7,55.9,163.6,56.1z"/>
	<path class="st0" d="M166.9,54.6c-2.6,4.7-5.5,9.2-7.1,14.4c-0.1,0.2,0,1.9,0.4,1.4c0.4-0.5,0.4-0.5,0.6-1.1c0.1-0.2,0-1.5-0.3-1.1
		c-0.2,0.2-0.4,0.4-0.5,0.6c0.1,0.4,0.3,0.8,0.4,1.3c1.4-5.4,4.3-10.3,6.6-15.3L166.9,54.6z"/>
	<path class="st0" d="M170.4,51.9c-2.5,5.7-6.1,10.8-7.7,16.8c-0.1,0.3,0.1,2.1,0.5,1.2c0.3-0.6,0.5-1.2,0.7-1.9
		c0-0.2-0.1-1.2-0.3-0.8c-0.2,0.5-0.5,0.9-0.8,1.3c0.1,0.5,0.3,0.9,0.4,1.4c1.6-6.3,5.1-11.8,7.3-17.9L170.4,51.9z"/>
	<path class="st0" d="M173.2,51.5c-3.2,4.4-5.2,10.1-6.7,15.3c-0.1,0.3,0.2,1.8,0.4,1.1c0.1-0.2,0.1-0.5,0.2-0.7
		c0-0.1,0-1.1-0.2-0.9c-0.1,0.1-0.2,0.2-0.3,0.3c0.1,0.4,0.2,0.9,0.3,1.3c1.9-5.5,3.9-10.8,6.4-16.1L173.2,51.5z"/>
	<path class="st0" d="M176.4,48.5c-0.4,3-2.3,5.6-3.5,8.3c-1.1,2.3-2,4.5-2.7,6.9c-0.1,0.3,0.2,1.8,0.4,1.1c0.1-0.3,0.2-0.6,0.3-1
		c0-0.1,0-1.1-0.2-0.8c-0.1,0.2-0.3,0.4-0.4,0.5c0.1,0.4,0.2,0.8,0.4,1.2c1-3.3,2.3-6.5,3.7-9.6C175.3,53,176.3,51,176.4,48.5
		L176.4,48.5z"/>
	<path class="st0" d="M179.4,41.9c-1.4,2.5-2.8,5.2-3.4,8c0,0.1,0.1,0.9,0.2,0.5c0.9-2.9,2.5-5.5,3.2-8.4L179.4,41.9z"/>
	<path class="st0" d="M181.5,43.3c-3.1,5.8-6,11.7-7.7,18c-0.1,0.2,0,1.6,0.3,1.1c0.1-0.2,0.2-0.3,0.3-0.5c0.1-0.1,0.1-0.9-0.1-0.9
		c-0.1,0-0.3,0-0.4,0.1c0.1,0.4,0.1,0.8,0.2,1.2c2.1-6.3,4.6-12.4,7.5-18.4C181.7,43.8,181.6,43.1,181.5,43.3z"/>
	<path class="st0" d="M182.5,45.6c-2.2,4.4-4.5,8.8-5.5,13.7c0,0.2,0.2,1.4,0.4,1c0.1-0.3,0.2-0.5,0.3-0.8c0.1-0.1,0-1.1-0.2-0.9
		c-0.1,0.1-0.3,0.3-0.4,0.4c0.1,0.4,0.2,0.8,0.3,1.2c1.3-4.7,3.3-9.1,5.3-13.5C182.9,46.4,182.7,45.3,182.5,45.6z"/>
	<path class="st0" d="M183.9,47.8c-1.3,2.8-5,7.5-3.5,10.8c0.2,0.4,0.3-0.1,0.3-0.3c0.2-3.5,2.1-6.4,3.4-9.6
		C184.2,48.6,184,47.5,183.9,47.8z"/>
	<path class="st0" d="M185.7,50c-1.3,2.6-3.1,5.4-3.3,8.4c0,0.1,0.2,1.1,0.3,0.7c0.4-1.1,0.6-2.2,1-3.3c0.6-1.6,1.4-3.2,2.1-4.7
		C186.1,50.8,185.9,49.7,185.7,50z"/>
	<path class="st0" d="M2.9,54.5c2.9-2.3,4.7-5.9,6.7-8.9c3.2-4.8,6.4-9.7,9.7-14.5c3.6-5.4,6.6-11.3,10.9-16.2c3-3.4,6.4-6.2,9-9.9
		c0.9-1.2-0.2-6.3-1.1-4.7C32.8,9.2,25,16.2,19.3,24.9c-5.5,8.5-10.6,18.4-17.2,26C1.6,51.5,2,55.3,2.9,54.5z"/>
	<path class="st0" d="M38.2,4c5.2,2.7,9.4,7.4,14.3,10.5c2.3,1.5,4.8,2.5,6.9,4.3c1.9,1.6,3.4,3.1,5.7,3.9c1.4,0.5,1.5-4.2,0.4-4.7
		c-4.5-2.1-8.2-5.6-12.6-8c-5-2.6-9.2-7.8-14.6-9.3C37.6,0.5,37.5,3.7,38.2,4z"/>
	<path class="st0" d="M0.4,55c4.3,4,9.8,6.9,14.5,10.3c2,1.5,4,3.1,6,4.7c1.9,1.5,5,2.2,7.1,3.5c1.1,0.7,1.7-3.4,0.4-4.1
		c-4.6-2.7-8.8-5.5-13.2-8.6c-4.3-3.1-9.5-7.4-14.9-8C-0.3,52.8,0.1,54.7,0.4,55z"/>
	<path class="st0" d="M26.8,74.1c0.3,0,0.5,0.1,0.8,0.1c0.2,0,0.3-0.1,0.4-0.2c3.5-4.7,6.8-9.2,10-14.1c1.4-2.2,3-4.3,4.7-6.3
		c2.4-2.8,4.3-7.1,7.1-9.3c1.4-1.1,2.5-3.4,3.5-4.9c2.1-3.1,4.3-5.7,7.2-8c3.5-2.9,6.1-5.3,6.6-9.9c0.1-0.9-1-5.3-1.7-2.7
		c-1.3,5-6.7,6.7-9.4,10.6C52.2,34.7,50.8,42,46,46.3c-3.5,3.1-6.3,6.1-9,10c-3.2,4.7-6,11.4-10.4,15.1C26.1,71.8,26,74,26.8,74.1z"
		/>
	<path class="st0" d="M74.2,47.8c4.3-2.8,7.3-7.1,10.4-11c2.5-3.2,5.2-6.9,9.2-8c3-0.8,6.1-0.6,9-1.6c1.7-0.6,0.1-4.6-0.3-4.2
		l-0.1,0.1c-0.6,0.6-0.9,3.8,0.3,3.9c4.7,0.6,9.3,1.6,14,1.9c2.2,0.1,6.8-0.4,8.6,1c0.6,0.5,1.1-3,0.3-3.7c-1.8-1.4-5.7-0.9-7.8-1
		c-5.1-0.3-10.2-1.1-15.1-2.1c0,1.3-0.1,2.6-0.1,3.9l0.1,0.1c0-1.4,0.1-2.8,0.1-4.2c-6-0.3-10.9,1.1-15.2,5.3
		c-5,4.9-8.7,10.8-13.8,15.7C72.9,44.6,73.1,48.5,74.2,47.8z"/>
	<path class="st0" d="M74.5,44.2c-0.7,2.8-1.6,6.6-0.4,9.4c3,7.3,7.8,10.3,5.9,19.6c0,0.2,0.1,1.9,0.5,1.3c2.2-3.4,2-8.3,1-12.1
		c-0.7-2.6-1.6-4.9-2.9-7.2c-0.8-1.4-2-2.7-2.9-4.1c-1-1.4-0.2-4.1,0-5.7C75.7,44.6,75,42.2,74.5,44.2z"/>
	<path class="st0" d="M79.5,76.5c5.2,4.7,14.4-1.2,17.1-6.3c3.7-7-1.6-14.1-1.5-21.1c-0.2,0.7-0.3,1.4-0.5,2.1
		c0.6-0.6,1.7-0.5,2.5-0.6c1.4-0.1,0.7-5.1-0.1-4.9c-4.6,1.3-4.3,5.4-3.3,9.7c0.5,2.1,1.2,4.1,1.8,6.1c1.4,4.7-1.6,7.4-4.9,9.8
		c-3.4,2.5-7,2.6-11,3C78.9,74.5,79.1,76.2,79.5,76.5z"/>
	<path class="st0" d="M96.3,49.9c6.2,4.5,11.4,7.3,19.1,8.7c4.8,0.9,9.5,0.5,14.3-0.3c2-0.3,5.9-0.3,7.2-2.2
		c0.4-0.6,0.6-3.4-0.4-3.7c-1.8-0.4-5,1.1-6.9,1.4c-4.8,0.8-9.4,1-14.3,0.3c-3.7-0.5-7.4-1.7-10.9-3.1c-2.8-1.2-4.9-4-8-3.8
		C95.7,47.2,95.9,49.6,96.3,49.9z"/>
	<path class="st0" d="M124.6,22.7c7.8,8.6,11.1,20.3,18.4,29.1c5.9,7.1,11.2,14.6,16.8,22c0.1,0.2,0.4,0.4,0.6,0.4l0.3-0.1
		c0.9-0.3,1-1.7,0.9-2.5c-0.2-3.1-1.8-4.5-3.9-6.7c-3.7-4-6.4-9-10.2-13.1c-2.5-2.7-4.9-4.8-6.7-8.2c-1.6-2.9-3.2-5.9-4.9-8.8
		c-3-5-6.3-11.2-11.1-14.7C124.2,19.8,124.2,22.3,124.6,22.7z"/>
	<path class="st0" d="M124.3,23.4c4.5-1.6,8.5-4.6,12.4-7.4c5.1-3.7,10.3-6.9,15-11.1c1-0.9,0.1-5.2-0.5-4.7
		c-8.5,7.5-18.1,13.7-27,20.5C123.7,21.2,123.8,23.6,124.3,23.4z"/>
	<path class="st0" d="M150.8,4.8c8.3,5.9,12.5,16.8,18.4,24.9c5.8,8.1,13.8,15.4,18.2,24.5c0.7,1.5,1.6-3.3,1.1-4.3
		c-1.8-3.7-4.8-6.8-7.2-10.1c-3.2-4.3-6.4-8.6-10.3-12.5c-7.5-7.5-10.5-19.8-19.9-25.6C150.4,1.3,150.1,4.3,150.8,4.8z"/>
	<path class="st0" d="M160.6,73.8c5.5-1.2,10.6-7.2,15.4-10.2c4.2-2.6,11.3-4,13.7-8.7c0.5-1,0.1-6.1-1.1-4.5
		c-3,4.1-9.2,5.6-13.3,8.3c-5.5,3.5-10.8,7.9-15.1,12.8C160,71.8,159.9,74,160.6,73.8z"/>
	<path class="st0" d="M44.4,86.3c0.6-4.9,2.5-5.9,6.9-7c2.7-0.7,5.3-1.9,7.9-2.7c4.8-1.5,6.7,3.9,3.4,7c-2.1,1.9-4.7,3.1-7,4.6
		c-0.8,0.6-0.7,4.2,0.5,3.7c4.4-1.9,8.8-3.8,10.1-8.8c0.8-3.2-0.6-7.8-3.2-9.7c-1.5-1-4.7-0.3-6.1,0.2c-2.7,0.9-5.2,2-7.9,2.8
		c-5.1,1.4-5.6,4.8-5.5,9.6C43.5,87.1,44.2,87.7,44.4,86.3z"/>
	<path class="st0" d="M43.1,86c0.4,3.4,1.8,6.6,5.3,7.8c3,1.1,7,0.5,9.4-1.6c0.6-0.6,0.9-4.3-0.3-4c-4.5,0.9-12,3.2-13.3-3.4
		C43.7,83.2,43,85.2,43.1,86z"/>
	<path class="st0" d="M54.2,94.8c3.4-2.9,7.2-5,11.1-7.2c2-1.1,3.1-1.5,5.3-1.3c3.7,0.2,3.1,2.8,2.9,5.7c0,0.3,0,2.7,0.8,2.4
		c3-1,1.5-10.4-0.8-11.9c-2.3-1.4-5.6-0.5-7.7,1c-4.2,2.9-8.3,5.7-11.8,9.4C53.6,93.2,53.8,95.1,54.2,94.8z"/>
	<path class="st0" d="M55,91.3c-3.2,2.3-2.9,7.2-1.2,10.4c1.6,3,6.1,6.9,9.8,5c1.1-0.6,1-4.7-0.4-4.8c-2.4-0.1-4.1-0.4-6.1-1.9
		c-1-0.7-1.9-1.7-2.4-2.8C54,96,54.7,95.1,55.5,94C55.8,93.6,55.7,90.8,55,91.3z"/>
	<path class="st0" d="M62.7,106.4l0.1,0.1c0.1,0.1,0.3,0.1,0.4,0c2.7-1.5,5.2-4.1,7.7-6.1c2-1.6,5.5-3.5,6.9-5.7
		c0.4-0.6,0.7-5-0.6-4.6c-1,0.3-2.1,1.6-2.9,2.2c-1.7,1.4-3.3,2.7-5,4.1c-2.1,1.8-6.6,4.4-7.1,7.4C62,104.5,61.9,105.9,62.7,106.4z"
		/>
	<path class="st0" d="M74.7,95.1c2.3-0.4,4.5,0,6.4,1.5c0.7,0.6,1.3,1.5,1.5,2.3c-0.1-0.4-0.1,0-0.2,0.3c-0.2,0.7-0.4,1.5-0.5,2.2
		c0,0.4,0.2,4,1.3,3.1c1.4-1.1,1.3-3.9,1.3-5.5c0-1.8-0.4-3.7-1.5-5.2c-1.9-2.8-5.9-2.2-8.6-0.9C74.1,93.1,74.1,95.2,74.7,95.1z"/>
	<path class="st0" d="M64.4,105c-0.8,7.9,7.1,12.6,14.3,10.2c1.1-0.4,0.9-2.8,0.7-3.6c-0.1,1.2,0.1,1.2,0.4,0c0.2-0.5,0.5-1,0.8-1.5
		c0.6-1,1.2-2,1.8-3c1-1.6,1.9-3.2,2.1-5c0-0.3,0.2-2.8-0.6-2.6c-2.1,0.5-4,5-4.9,6.8c-1.4,2.6-2,5.6-1,8.3c0.1-1.3,0.2-2.7,0.3-4
		c-3.9,1.5-12.6,0.3-12.9-5.1C65.3,104.2,64.6,103.4,64.4,105z"/>
	<path class="st0" d="M83.6,104.1c1.8-2.9,7.1-2.7,9-0.1c1.3,1.7-1.2,6.1-1.9,7.8c-0.8,1.9-1.2,3.7-1.2,5.8c0,0.3,0.8,3.7,1.4,2.1
		c2.4-5.4,4.9-12.2,3-18.1c-1.5-4.7-8.8-4.2-11-0.4C82.5,101.8,83,105.1,83.6,104.1z"/>
	<path class="st0" d="M77.9,112.3c-0.5,3.3,0,6.6,2.6,8.9c3.6,3.1,9.2,1.5,11.7-2.1c0.3-0.5,0.6-3.7-0.4-3.6c-2.6,0.2-4.5,2.1-7.3,2
		c-2.9-0.2-5.2-1.9-5.6-4.8C78.7,111.8,78.1,111,77.9,112.3z"/>
	<path class="st0" d="M31.8,69.3c2,2.3,4.2,4.1,6.5,6.1c1.8,1.6,4.7,3.8,5.6,6c0.4,0.9,1,0.9,1.3,0c0.4-1.2,0.4-2.9-0.3-4.1
		c-1.1-2-3.3-3.2-5-4.7c-2.4-2.1-5.3-3.4-7.8-5.4C31.6,66.9,31.5,69,31.8,69.3z"/>
	<path class="st0" d="M91,120.6c2.3,3.2,5.7,8.4,9.9,9.2c3.4,0.7,8.2,0.5,10.7-2.3c4.3-4.8-0.7-12.3-4.6-15.6
		c-0.9-0.8-0.9,2.5-0.7,2.9c0.9,1.8,2,3.5,3.2,5.1c0.7,1,1.5,2.2,1.9,3.3c0.5,1.4-2.5,2.2-3.2,2.4c-7.2,2.1-11.7-3.6-16.5-7.9
		C90.6,116.7,90.5,120,91,120.6z"/>
	<path class="st0" d="M106.5,116.1c2.9,2.5,5.5,6.7,9.3,7.8c3.1,0.9,6.9-0.8,8.9-3.1c5-5.7,1.1-13.4-3.9-17.5
		c-1-0.8-0.9,2.8-0.7,3.3c1.1,2.3,2.7,4.1,4.2,6.2c2.7,3.7-2.7,6.3-5.6,6.8c-5.5,1-7.5-4.8-12.1-6.1
		C105.8,113.3,106.1,115.7,106.5,116.1z"/>
	<path class="st0" d="M120.1,108c2.6,2.5,6.7,5.6,10.5,5c2.8-0.4,6.4-2.3,8.2-4.5c1.7-2.1,2.7-6.4,2-9.1c-1.1-4.1-4.2-5.2-7.9-6.5
		c-1.3-0.5-1.3,3.8-0.3,4.5c2,1.4,4.8,2,6.5,3.9c-0.1-0.9-0.2-0.7-0.3,0.7c-0.2,0.9-0.6,1.8-1,2.6c-0.5,0.9-1.8,1.5-2.7,2
		c-2.1,1.3-4.4,2.4-6.9,2c-2.8-0.4-5.5-2.7-7.8-4.3C119.6,103.7,119.4,107.3,120.1,108z"/>
	<path class="st0" d="M133.6,97.8c3.1,0.6,7.2,2.6,10.3,1.2c3-1.3,4.8-4,6.3-6.8c1.3-2.4,1.6-5.5,1.1-8.2c-0.5-2.7-2.1-7-4.7-8.2
		c-1.2-0.6-0.8,3.6-0.5,4.2c1,1.8,2.5,3.2,3.3,5.1c1.1,2.4-1.7,6-3.2,7.7C143,97,138,95,133.6,94.8
		C132.8,94.7,132.8,97.7,133.6,97.8z"/>
	<path class="st0" d="M119.4,59.8c2.1,4.9,6.9,8.5,11,11.7c4.8,3.6,11.4,4.3,15.9,7.9c0.8,0.6,1-3.4,0.5-4c-1-1.4-2.9-1.7-4.4-2.3
		c-2.9-1.1-5.7-2.3-8.5-3.8c-5-2.6-10.7-7.1-13.9-11.8C119.4,56.6,119.2,59.3,119.4,59.8z"/>
	<path class="st0" d="M147.6,78.3c0.9,0.8,2.6-1.3,3.4-1.9c1.3-1.1,2.6-2.1,3.9-3.1c1-0.8,2.2-1.4,2.4-2.8c0.1-0.7,0.2-1.4,0.1-2.2
		c-0.1-0.5-0.5-2.5-1.6-1.3c-2.2,2.4-4.7,4.3-6.6,6.9C148.7,74.7,146.7,77.5,147.6,78.3z"/>
	<path class="st0" d="M61.3,28.3c8.1,6.5,20.1,2.3,29.3,0.7c1-0.2,0.6-4.1-0.1-3.9c-9.5,1.8-19.6,5-29.1,1.3
		C60.9,26.2,60.9,28,61.3,28.3z"/>
</g>
</svg>
